<mxfile host="app.diagrams.net" modified="2023-07-22T14:53:52.207Z" agent="Mozilla/5.0 (Windows NT 10.0; Win64; x64) AppleWebKit/537.36 (KHTML, like Gecko) Chrome/114.0.0.0 Safari/537.36 Edg/114.0.1823.82" etag="DJ4fTLt3oVmVI96dG1PO" version="21.6.5" type="github">
  <diagram id="kgpKYQtTHZ0yAKxKKP6v" name="Page-1">
    <mxGraphModel dx="797" dy="746" grid="1" gridSize="10" guides="1" tooltips="1" connect="1" arrows="1" fold="1" page="1" pageScale="1" pageWidth="850" pageHeight="1100" math="0" shadow="0">
      <root>
        <mxCell id="0" />
        <mxCell id="1" parent="0" />
        <mxCell id="yV21jFgFXQ5YjGtAwndk-1" value="Aktor" style="swimlane;whiteSpace=wrap;html=1;" vertex="1" parent="1">
          <mxGeometry x="180" y="80" width="250" height="400" as="geometry" />
        </mxCell>
        <mxCell id="yV21jFgFXQ5YjGtAwndk-2" style="edgeStyle=orthogonalEdgeStyle;rounded=0;orthogonalLoop=1;jettySize=auto;html=1;entryX=0.5;entryY=0;entryDx=0;entryDy=0;" edge="1" parent="yV21jFgFXQ5YjGtAwndk-1" source="yV21jFgFXQ5YjGtAwndk-3" target="yV21jFgFXQ5YjGtAwndk-4">
          <mxGeometry relative="1" as="geometry" />
        </mxCell>
        <mxCell id="yV21jFgFXQ5YjGtAwndk-3" value="" style="ellipse;html=1;shape=endState;fillColor=#000000;strokeColor=#000000;" vertex="1" parent="yV21jFgFXQ5YjGtAwndk-1">
          <mxGeometry x="112.5" y="60" width="30" height="30" as="geometry" />
        </mxCell>
        <mxCell id="yV21jFgFXQ5YjGtAwndk-4" value="Klik Data Admin" style="rounded=1;whiteSpace=wrap;html=1;" vertex="1" parent="yV21jFgFXQ5YjGtAwndk-1">
          <mxGeometry x="40" y="140" width="175" height="30" as="geometry" />
        </mxCell>
        <mxCell id="yV21jFgFXQ5YjGtAwndk-24" style="edgeStyle=orthogonalEdgeStyle;rounded=0;orthogonalLoop=1;jettySize=auto;html=1;" edge="1" parent="yV21jFgFXQ5YjGtAwndk-1" source="yV21jFgFXQ5YjGtAwndk-9" target="yV21jFgFXQ5YjGtAwndk-11">
          <mxGeometry relative="1" as="geometry" />
        </mxCell>
        <mxCell id="yV21jFgFXQ5YjGtAwndk-9" value="Memilih Data yang Akan di Hapus" style="rounded=1;whiteSpace=wrap;html=1;" vertex="1" parent="yV21jFgFXQ5YjGtAwndk-1">
          <mxGeometry x="40" y="210" width="175" height="30" as="geometry" />
        </mxCell>
        <mxCell id="yV21jFgFXQ5YjGtAwndk-11" value="Hapus Data" style="rounded=1;whiteSpace=wrap;html=1;" vertex="1" parent="yV21jFgFXQ5YjGtAwndk-1">
          <mxGeometry x="40" y="270" width="175" height="30" as="geometry" />
        </mxCell>
        <mxCell id="yV21jFgFXQ5YjGtAwndk-12" value="Sistem" style="swimlane;whiteSpace=wrap;html=1;" vertex="1" parent="1">
          <mxGeometry x="430" y="80" width="220" height="400" as="geometry" />
        </mxCell>
        <mxCell id="yV21jFgFXQ5YjGtAwndk-13" value="Menampilkan Data Admin" style="rounded=1;whiteSpace=wrap;html=1;" vertex="1" parent="yV21jFgFXQ5YjGtAwndk-12">
          <mxGeometry x="22.5" y="140" width="175" height="30" as="geometry" />
        </mxCell>
        <mxCell id="yV21jFgFXQ5YjGtAwndk-15" style="edgeStyle=orthogonalEdgeStyle;rounded=0;orthogonalLoop=1;jettySize=auto;html=1;entryX=0.5;entryY=0;entryDx=0;entryDy=0;" edge="1" parent="yV21jFgFXQ5YjGtAwndk-12" source="yV21jFgFXQ5YjGtAwndk-16" target="yV21jFgFXQ5YjGtAwndk-17">
          <mxGeometry relative="1" as="geometry" />
        </mxCell>
        <mxCell id="yV21jFgFXQ5YjGtAwndk-16" value="Menghapus Data Dari Database" style="rounded=1;whiteSpace=wrap;html=1;" vertex="1" parent="yV21jFgFXQ5YjGtAwndk-12">
          <mxGeometry x="25" y="270" width="175" height="30" as="geometry" />
        </mxCell>
        <mxCell id="yV21jFgFXQ5YjGtAwndk-17" value="" style="ellipse;html=1;shape=endState;fillColor=#000000;strokeColor=#000000;" vertex="1" parent="yV21jFgFXQ5YjGtAwndk-12">
          <mxGeometry x="97.5" y="350" width="30" height="30" as="geometry" />
        </mxCell>
        <mxCell id="yV21jFgFXQ5YjGtAwndk-18" style="edgeStyle=orthogonalEdgeStyle;rounded=0;orthogonalLoop=1;jettySize=auto;html=1;exitX=1;exitY=0.5;exitDx=0;exitDy=0;entryX=0;entryY=0.5;entryDx=0;entryDy=0;" edge="1" parent="1" source="yV21jFgFXQ5YjGtAwndk-4" target="yV21jFgFXQ5YjGtAwndk-13">
          <mxGeometry relative="1" as="geometry" />
        </mxCell>
        <mxCell id="yV21jFgFXQ5YjGtAwndk-21" style="edgeStyle=orthogonalEdgeStyle;rounded=0;orthogonalLoop=1;jettySize=auto;html=1;exitX=1;exitY=0.5;exitDx=0;exitDy=0;entryX=0;entryY=0.5;entryDx=0;entryDy=0;" edge="1" parent="1" source="yV21jFgFXQ5YjGtAwndk-11" target="yV21jFgFXQ5YjGtAwndk-16">
          <mxGeometry relative="1" as="geometry" />
        </mxCell>
        <mxCell id="yV21jFgFXQ5YjGtAwndk-22" style="edgeStyle=orthogonalEdgeStyle;rounded=0;orthogonalLoop=1;jettySize=auto;html=1;entryX=1;entryY=0.5;entryDx=0;entryDy=0;" edge="1" parent="1" source="yV21jFgFXQ5YjGtAwndk-13" target="yV21jFgFXQ5YjGtAwndk-9">
          <mxGeometry relative="1" as="geometry">
            <Array as="points">
              <mxPoint x="540" y="305" />
            </Array>
          </mxGeometry>
        </mxCell>
      </root>
    </mxGraphModel>
  </diagram>
</mxfile>
